<svg width="43" height="41" viewBox="0 0 43 41" fill="none" xmlns="http://www.w3.org/2000/svg">
<path d="M42.999 4.94458C42.999 7.67526 40.7854 9.88892 38.0547 9.88892H32.3691C29.0554 9.88892 26.3691 12.5752 26.3691 15.8889V35.3586C26.3691 38.0893 24.1555 40.303 21.4248 40.303C18.6941 40.303 16.4805 38.0893 16.4805 35.3586V15.8889C16.4805 12.5752 13.7942 9.88892 10.4805 9.88892H4.94434C2.21365 9.88892 0 7.67526 0 4.94458C0 2.2139 2.21365 0.000244141 4.94434 0.000244141H38.0547C40.7854 0.000244141 42.999 2.2139 42.999 4.94458Z" fill="url(#paint0_linear_2257_4117)"/>
<path d="M42.999 4.94458C42.999 7.67526 40.7854 9.88892 38.0547 9.88892H32.3691C29.0554 9.88892 26.3691 12.5752 26.3691 15.8889V35.3586C26.3691 38.0893 24.1555 40.303 21.4248 40.303C18.6941 40.303 16.4805 38.0893 16.4805 35.3586V15.8889C16.4805 12.5752 13.7942 9.88892 10.4805 9.88892H4.94434C2.21365 9.88892 0 7.67526 0 4.94458C0 2.2139 2.21365 0.000244141 4.94434 0.000244141H38.0547C40.7854 0.000244141 42.999 2.2139 42.999 4.94458Z" fill="#1D1D1D" fill-opacity="0.05"/>
<path d="M42.999 4.94458C42.999 7.67526 40.7854 9.88892 38.0547 9.88892H32.3691C29.0554 9.88892 26.3691 12.5752 26.3691 15.8889V35.3586C26.3691 38.0893 24.1555 40.303 21.4248 40.303C18.6941 40.303 16.4805 38.0893 16.4805 35.3586V15.8889C16.4805 12.5752 13.7942 9.88892 10.4805 9.88892H4.94434C2.21365 9.88892 0 7.67526 0 4.94458C0 2.2139 2.21365 0.000244141 4.94434 0.000244141H38.0547C40.7854 0.000244141 42.999 2.2139 42.999 4.94458Z" fill="url(#paint1_linear_2257_4117)" fill-opacity="0.2"/>
<line x1="7.97168" y1="22.2456" x2="33.1029" y2="22.2456" stroke="#1D1D1D" stroke-opacity="0.05" stroke-width="5" stroke-linecap="round"/>
<line x1="7.97168" y1="22.2456" x2="33.1029" y2="22.2456" stroke="url(#paint2_linear_2257_4117)" stroke-opacity="0.2" stroke-width="5" stroke-linecap="round"/>
<defs>
<linearGradient id="paint0_linear_2257_4117" x1="17.322" y1="6.26672" x2="45.8498" y2="38.7666" gradientUnits="userSpaceOnUse">
<stop stop-color="#00FF97"/>
<stop offset="0.664482" stop-color="#2C32FE"/>
</linearGradient>
<linearGradient id="paint1_linear_2257_4117" x1="0" y1="0.000244141" x2="50.2308" y2="13.6081" gradientUnits="userSpaceOnUse">
<stop stop-color="#87FFE1"/>
<stop offset="0.776042" stop-color="#5C6DFF"/>
</linearGradient>
<linearGradient id="paint2_linear_2257_4117" x1="5.47168" y1="24.7456" x2="6.10629" y2="29.6009" gradientUnits="userSpaceOnUse">
<stop stop-color="#87FFE1"/>
<stop offset="0.776042" stop-color="#5C6DFF"/>
</linearGradient>
</defs>
</svg>
