<svg width="48" height="48" viewBox="0 0 48 48" fill="none" xmlns="http://www.w3.org/2000/svg">
<path fill-rule="evenodd" clip-rule="evenodd" d="M13.5 3.75H11.25C9.2625 3.75 7.35004 4.54049 5.94754 5.94674C4.53754 7.35299 3.75 9.261 3.75 11.25V13.5H1.5C0.675 13.5 0 14.172 0 15C0 15.828 0.675 16.5 1.5 16.5H3.75V19.5H1.5C0.675 19.5 0 20.172 0 21C0 21.828 0.675 22.5 1.5 22.5H3.75V25.5H1.5C0.675 25.5 0 26.172 0 27C0 27.828 0.675 28.5 1.5 28.5H3.75V31.5H1.5C0.675 31.5 0 32.172 0 33C0 33.828 0.675 34.5 1.5 34.5H3.75V36.75C3.75 38.739 4.53754 40.647 5.94754 42.0533C7.35004 43.4595 9.2625 44.25 11.25 44.25H13.5V46.5C13.5 47.328 14.175 48 15 48C15.825 48 16.5 47.328 16.5 46.5V44.25H19.5V46.5C19.5 47.328 20.175 48 21 48C21.825 48 22.5 47.328 22.5 46.5V44.25H25.5V46.5C25.5 47.328 26.175 48 27 48C27.825 48 28.5 47.328 28.5 46.5V44.25H31.5V46.5C31.5 47.328 32.175 48 33 48C33.825 48 34.5 47.328 34.5 46.5V44.25H36.75C38.7375 44.25 40.65 43.4595 42.0525 42.0533C43.4625 40.647 44.25 38.739 44.25 36.75V34.5H46.5C47.325 34.5 48 33.828 48 33C48 32.172 47.325 31.5 46.5 31.5H44.25V28.5H46.5C47.325 28.5 48 27.828 48 27C48 26.172 47.325 25.5 46.5 25.5H44.25V22.5H46.5C47.325 22.5 48 21.828 48 21C48 20.172 47.325 19.5 46.5 19.5H44.25V16.5H46.5C47.325 16.5 48 15.828 48 15C48 14.172 47.325 13.5 46.5 13.5H44.25V11.25C44.25 9.261 43.4625 7.35299 42.0525 5.94674C40.65 4.54049 38.7375 3.75 36.75 3.75H34.5V1.5C34.5 0.672 33.825 0 33 0C32.175 0 31.5 0.672 31.5 1.5V3.75H28.5V1.5C28.5 0.672 27.825 0 27 0C26.175 0 25.5 0.672 25.5 1.5V3.75H22.5V1.5C22.5 0.672 21.825 0 21 0C20.175 0 19.5 0.672 19.5 1.5V3.75H16.5V1.5C16.5 0.672 15.825 0 15 0C14.175 0 13.5 0.672 13.5 1.5V3.75ZM41.25 11.25V36.75C41.25 37.9432 40.7775 39.0878 39.93 39.9323C39.09 40.776 37.9425 41.25 36.75 41.25H11.25C10.0575 41.25 8.91001 40.776 8.07001 39.9323C7.22251 39.0878 6.75 37.9432 6.75 36.75V11.25C6.75 10.0568 7.22251 8.91224 8.07001 8.06774C8.91001 7.22399 10.0575 6.75 11.25 6.75H36.75C37.9425 6.75 39.09 7.22399 39.93 8.06774C40.7775 8.91224 41.25 10.0568 41.25 11.25ZM39.75 11.25C39.75 10.4543 39.435 9.6915 38.8725 9.129C38.31 8.56575 37.545 8.25 36.75 8.25C31.8225 8.25 16.1775 8.25 11.25 8.25C10.455 8.25 9.69003 8.56575 9.12753 9.129C8.56503 9.6915 8.25 10.4543 8.25 11.25V36.75C8.25 37.5457 8.56503 38.3085 9.12753 38.871C9.69003 39.4343 10.455 39.75 11.25 39.75H36.75C37.545 39.75 38.31 39.4343 38.8725 38.871C39.435 38.3085 39.75 37.5457 39.75 36.75V11.25ZM26.25 30.75V19.5C26.25 16.6005 23.9025 14.25 21 14.25C18.0975 14.25 15.75 16.6005 15.75 19.5V30.75C15.75 31.578 16.425 32.25 17.25 32.25C18.075 32.25 18.75 31.578 18.75 30.75V27H23.25V30.75C23.25 31.578 23.925 32.25 24.75 32.25C25.575 32.25 26.25 31.578 26.25 30.75ZM29.25 15.75V30.75C29.25 31.578 29.925 32.25 30.75 32.25C31.575 32.25 32.25 31.578 32.25 30.75V15.75C32.25 14.922 31.575 14.25 30.75 14.25C29.925 14.25 29.25 14.922 29.25 15.75ZM18.75 24H23.25V19.5C23.25 18.2572 22.245 17.25 21 17.25C19.755 17.25 18.75 18.2572 18.75 19.5V24Z" fill="url(#paint0_linear_2257_6034)"/>
<defs>
<linearGradient id="paint0_linear_2257_6034" x1="-3.24556" y1="39.9744" x2="48.0859" y2="0.023474" gradientUnits="userSpaceOnUse">
<stop stop-color="#2C32FE"/>
<stop offset="0.49" stop-color="#00A4AF"/>
<stop offset="1" stop-color="#00FF97"/>
</linearGradient>
</defs>
</svg>
