<svg width="49" height="49" viewBox="0 0 49 49" fill="none" xmlns="http://www.w3.org/2000/svg">
<path d="M44.4062 19.2723V7.86327C45.9014 7.25935 46.9585 5.79793 46.9585 4.08293C46.9585 1.82586 45.1321 0 42.875 0C40.6216 0 38.7915 1.82586 38.7915 4.08293C38.7915 5.79793 39.8486 7.25751 41.3438 7.86327V15.4638C36.9534 10.9521 31.0317 8.16646 24.5 8.16646C17.9683 8.16646 12.0491 10.9521 7.65625 15.4656V7.86327C9.15136 7.25751 10.2079 5.79793 10.2079 4.08293C10.2079 1.82586 8.38145 0 6.125 0C3.871 0 2.04207 1.82586 2.04207 4.08293C2.04207 5.79793 3.09864 7.25751 4.59375 7.86327V19.2741C1.71377 23.6241 0 28.9443 0 34.7079C0 42.6037 10.9699 49 24.5 49C38.0344 49 49 42.6037 49 34.7079C49 28.9419 47.285 23.6241 44.4062 19.2723ZM24.5 38.7909C16.0395 38.7909 9.1875 36.9632 9.1875 34.7079C9.1875 29.9225 10.3562 25.5921 12.25 22.4579C20.4244 25.2809 29.1893 25.0776 36.75 22.4579C38.6445 25.5921 39.8125 29.9231 39.8125 34.7079C39.8125 36.9632 32.9562 38.7909 24.5 38.7909Z" fill="url(#paint0_linear_2257_6025)"/>
<path d="M34.71 32.1559C34.71 33.5677 33.5696 34.7076 32.1578 34.7076C30.7459 34.7076 29.6055 33.5677 29.6055 32.1559C29.6055 30.7453 30.7459 29.603 32.1578 29.603C33.5696 29.603 34.71 30.7453 34.71 32.1559Z" fill="url(#paint1_linear_2257_6025)"/>
<path d="M19.3963 32.1559C19.3963 33.5677 18.2552 34.7076 16.8446 34.7076C15.4341 34.7076 14.293 33.5677 14.293 32.1559C14.293 30.7453 15.4341 29.603 16.8446 29.603C18.2552 29.603 19.3963 30.7453 19.3963 32.1559Z" fill="url(#paint2_linear_2257_6025)"/>
<defs>
<linearGradient id="paint0_linear_2257_6025" x1="-3.31318" y1="40.8072" x2="49.0877" y2="0.0239631" gradientUnits="userSpaceOnUse">
<stop stop-color="#2C32FE"/>
<stop offset="0.49" stop-color="#00A4AF"/>
<stop offset="1" stop-color="#00FF97"/>
</linearGradient>
<linearGradient id="paint1_linear_2257_6025" x1="29.2603" y1="33.8541" x2="34.7192" y2="29.6055" gradientUnits="userSpaceOnUse">
<stop stop-color="#2C32FE"/>
<stop offset="0.49" stop-color="#00A4AF"/>
<stop offset="1" stop-color="#00FF97"/>
</linearGradient>
<linearGradient id="paint2_linear_2257_6025" x1="13.9479" y1="33.8541" x2="19.4064" y2="29.6068" gradientUnits="userSpaceOnUse">
<stop stop-color="#2C32FE"/>
<stop offset="0.49" stop-color="#00A4AF"/>
<stop offset="1" stop-color="#00FF97"/>
</linearGradient>
</defs>
</svg>
