<svg width="54" height="48" viewBox="0 0 54 48" fill="none" xmlns="http://www.w3.org/2000/svg">
<path d="M35.1852 12.1289H18.8164C15.6835 12.1289 12.679 13.3734 10.4637 15.5887C8.24843 17.804 7.00391 20.8085 7.00391 23.9414V36.0745C7.00391 37.6258 7.30945 39.1618 7.90308 40.595C8.49671 42.0281 9.36681 43.3303 10.4637 44.4272C11.5606 45.5241 12.8628 46.3942 14.296 46.9879C15.7291 47.5815 17.2652 47.887 18.8164 47.887H35.1852C36.7364 47.887 38.2724 47.5815 39.7056 46.9879C41.1388 46.3942 42.441 45.5241 43.5379 44.4272C44.6347 43.3303 45.5048 42.0281 46.0985 40.595C46.6921 39.1618 46.9977 37.6258 46.9977 36.0745V23.9414C46.9977 20.8085 45.7531 17.804 43.5379 15.5887C41.3226 13.3734 38.318 12.1289 35.1852 12.1289ZM42.6355 33.1383C42.6288 35.5867 41.655 37.9333 39.9261 39.6669C38.1972 41.4006 35.8532 42.3809 33.4048 42.3942H20.6052C18.1509 42.3942 15.7966 41.4222 14.0572 39.6907C12.3178 37.9593 11.3351 35.6094 11.3239 33.1552V26.8692C11.3373 24.4165 12.321 22.0687 14.0602 20.3391C15.7993 18.6094 18.1524 17.6386 20.6052 17.6386H33.4048C35.8489 17.6519 38.189 18.6287 39.9172 20.3569C41.6454 22.0851 42.6222 24.4252 42.6355 26.8692V33.1383Z" fill="url(#paint0_linear_2403_3669)"/>
<path d="M33.4048 19.3936H20.6052C18.6224 19.3958 16.7214 20.1838 15.3186 21.5851C13.9158 22.9863 13.1256 24.8864 13.1211 26.8692V33.1551C13.1233 35.1393 13.9125 37.0416 15.3156 38.4447C16.7186 39.8477 18.6209 40.6369 20.6052 40.6392H33.4048C35.3883 40.6369 37.2897 39.8475 38.6914 38.4442C40.0931 37.0409 40.8805 35.1385 40.8805 33.1551V26.8692C40.8782 24.8872 40.0899 22.987 38.6884 21.5856C37.287 20.1841 35.3868 19.3958 33.4048 19.3936ZM19.407 30.067C18.7699 30.067 18.1471 29.8782 17.6172 29.5244C17.0874 29.1706 16.6743 28.6677 16.4301 28.0792C16.1859 27.4908 16.1216 26.8432 16.2452 26.2182C16.3689 25.5932 16.6751 25.0189 17.125 24.5678C17.5749 24.1167 18.1484 23.809 18.7731 23.6837C19.3977 23.5584 20.0455 23.621 20.6346 23.8637C21.2237 24.1063 21.7277 24.5181 22.0829 25.0471C22.438 25.576 22.6285 26.1983 22.6302 26.8354C22.6302 27.691 22.2908 28.5117 21.6866 29.1175C21.0824 29.7233 20.2626 30.0648 19.407 30.067ZM32.1055 34.2857C30.7965 35.6145 29.0176 36.3751 27.1527 36.4036C25.2171 36.3519 23.3654 35.6028 21.9383 34.2942C21.7671 34.1342 21.6665 33.9127 21.6586 33.6785C21.6507 33.4444 21.7361 33.2166 21.8961 33.0454C22.0561 32.8742 22.2775 32.7736 22.5117 32.7657C22.7459 32.7578 22.9737 32.8432 23.1448 33.0032C23.3052 33.1636 27.102 36.6145 30.9242 33.0032C31.0954 32.8522 31.3196 32.7753 31.5474 32.7896C31.7753 32.8038 31.9882 32.908 32.1392 33.0792C32.2903 33.2504 32.3671 33.4745 32.3529 33.7024C32.3386 33.9303 32.2345 34.1431 32.0633 34.2942L32.1055 34.2857ZM34.6367 30.067C33.9996 30.067 33.3768 29.8782 32.8469 29.5244C32.3171 29.1706 31.904 28.6677 31.6598 28.0792C31.4156 27.4908 31.3512 26.8432 31.4749 26.2182C31.5986 25.5932 31.9047 25.0189 32.3547 24.5678C32.8046 24.1167 33.3781 23.809 34.0028 23.6837C34.6274 23.5584 35.2752 23.621 35.8643 23.8637C36.4534 24.1063 36.9574 24.5181 37.3126 25.0471C37.6677 25.576 37.8582 26.1983 37.8598 26.8354C37.8599 27.2627 37.7752 27.6857 37.6107 28.0799C37.4462 28.4742 37.2051 28.832 36.9014 29.1325C36.5978 29.433 36.2375 29.6704 35.8416 29.8308C35.4456 29.9912 35.0217 30.0715 34.5945 30.067H34.6367Z" fill="url(#paint1_linear_2403_3669)"/>
<path d="M19.4056 25.376C19.1149 25.376 18.8307 25.4623 18.5891 25.624C18.3475 25.7857 18.1593 26.0155 18.0484 26.2843C17.9376 26.553 17.909 26.8486 17.9663 27.1337C18.0237 27.4187 18.1643 27.6803 18.3705 27.8852C18.5767 28.0902 18.8391 28.2294 19.1244 28.2851C19.4097 28.3408 19.7052 28.3105 19.9733 28.1981C20.2414 28.0856 20.4701 27.8962 20.6304 27.6536C20.7907 27.4111 20.8754 27.1264 20.8737 26.8357C20.8737 26.6433 20.8357 26.4528 20.7618 26.2751C20.6879 26.0975 20.5797 25.9362 20.4432 25.8005C20.3068 25.6649 20.1449 25.5575 19.9668 25.4847C19.7887 25.4118 19.598 25.3749 19.4056 25.376Z" fill="url(#paint2_linear_2403_3669)"/>
<path d="M34.5931 25.376C34.3024 25.376 34.0182 25.4623 33.7766 25.624C33.535 25.7857 33.3468 26.0155 33.2359 26.2843C33.1251 26.553 33.0965 26.8486 33.1538 27.1337C33.2112 27.4187 33.3518 27.6803 33.558 27.8852C33.7642 28.0902 34.0266 28.2294 34.3119 28.2851C34.5972 28.3408 34.8927 28.3105 35.1608 28.1981C35.4289 28.0856 35.6576 27.8962 35.8179 27.6536C35.9782 27.4111 36.0629 27.1264 36.0612 26.8357C36.0612 26.6433 36.0232 26.4528 35.9493 26.2751C35.8754 26.0975 35.7672 25.9362 35.6307 25.8005C35.4943 25.6649 35.3324 25.5575 35.1543 25.4847C34.9762 25.4118 34.7855 25.3749 34.5931 25.376Z" fill="url(#paint3_linear_2403_3669)"/>
<path d="M49.1484 22.8525V37.171C51.9497 36.4707 54 33.5091 54 30.016C54 26.5229 51.9497 23.5529 49.1484 22.8525Z" fill="url(#paint4_linear_2403_3669)"/>
<path d="M4.85156 22.8525C2.05031 23.5529 0 26.5229 0 30.016C0 33.5091 2.05031 36.4707 4.85156 37.171C4.85156 36.8082 4.85156 36.4454 4.85156 36.0741V23.941C4.80937 23.5866 4.82625 23.2154 4.85156 22.8525Z" fill="url(#paint5_linear_2403_3669)"/>
<path d="M25.9464 5.85114V10.5593H28.0558V5.85114C28.7194 5.60387 29.275 5.1313 29.6256 4.51598C29.9762 3.90067 30.0994 3.18173 29.9738 2.48478C29.8482 1.78783 29.4817 1.15718 28.9383 0.703002C28.3949 0.248825 27.7093 0 27.0011 0C26.2929 0 25.6072 0.248825 25.0639 0.703002C24.5205 1.15718 24.154 1.78783 24.0284 2.48478C23.9028 3.18173 24.026 3.90067 24.3766 4.51598C24.7272 5.1313 25.2828 5.60387 25.9464 5.85114Z" fill="url(#paint6_linear_2403_3669)"/>
<defs>
<linearGradient id="paint0_linear_2403_3669" x1="-0.512194" y1="42.1862" x2="46.3783" y2="8.82122" gradientUnits="userSpaceOnUse">
<stop stop-color="#2C32FE"/>
<stop offset="0.49" stop-color="#00A4AF"/>
<stop offset="1" stop-color="#00FF97"/>
</linearGradient>
<linearGradient id="paint1_linear_2403_3669" x1="-0.512194" y1="42.1862" x2="46.3783" y2="8.82122" gradientUnits="userSpaceOnUse">
<stop stop-color="#2C32FE"/>
<stop offset="0.49" stop-color="#00A4AF"/>
<stop offset="1" stop-color="#00FF97"/>
</linearGradient>
<linearGradient id="paint2_linear_2403_3669" x1="-0.512194" y1="42.1862" x2="46.3783" y2="8.82122" gradientUnits="userSpaceOnUse">
<stop stop-color="#2C32FE"/>
<stop offset="0.49" stop-color="#00A4AF"/>
<stop offset="1" stop-color="#00FF97"/>
</linearGradient>
<linearGradient id="paint3_linear_2403_3669" x1="-0.512194" y1="42.1862" x2="46.3783" y2="8.82122" gradientUnits="userSpaceOnUse">
<stop stop-color="#2C32FE"/>
<stop offset="0.49" stop-color="#00A4AF"/>
<stop offset="1" stop-color="#00FF97"/>
</linearGradient>
<linearGradient id="paint4_linear_2403_3669" x1="-0.512194" y1="42.1862" x2="46.3783" y2="8.82122" gradientUnits="userSpaceOnUse">
<stop stop-color="#2C32FE"/>
<stop offset="0.49" stop-color="#00A4AF"/>
<stop offset="1" stop-color="#00FF97"/>
</linearGradient>
<linearGradient id="paint5_linear_2403_3669" x1="-0.512194" y1="42.1862" x2="46.3783" y2="8.82122" gradientUnits="userSpaceOnUse">
<stop stop-color="#2C32FE"/>
<stop offset="0.49" stop-color="#00A4AF"/>
<stop offset="1" stop-color="#00FF97"/>
</linearGradient>
<linearGradient id="paint6_linear_2403_3669" x1="-0.512194" y1="42.1862" x2="46.3783" y2="8.82122" gradientUnits="userSpaceOnUse">
<stop stop-color="#2C32FE"/>
<stop offset="0.49" stop-color="#00A4AF"/>
<stop offset="1" stop-color="#00FF97"/>
</linearGradient>
</defs>
</svg>
